<svg id="Capa_1" data-name="Capa 1" xmlns="http://www.w3.org/2000/svg" viewBox="0 0 1364 738"><defs><style>.cls-1{fill:#fff;}.cls-2{fill:#136ee6;}.cls-3{fill:#f8cc42;}</style></defs><rect class="cls-1" width="1364" height="738"/><path class="cls-2" d="M292.39,386.29a5.79,5.79,0,0,1-1.83,4.45,6.1,6.1,0,0,1-4.27,1.68h-41.8a4.83,4.83,0,0,1-3.81-1.53,5.73,5.73,0,0,1-1.37-4l-2.15-50.29H174.32l-19.93,50.3a9.46,9.46,0,0,1-2.77,4,6.47,6.47,0,0,1-4.29,1.53H103.49c-2.87,0-4.3-1.22-4.3-3.68A9.76,9.76,0,0,1,99.8,386l79.13-190.14a57.66,57.66,0,0,1,11-17.79A46.31,46.31,0,0,1,204,167.79,58.54,58.54,0,0,1,219.83,163a108.6,108.6,0,0,1,16.11-1.22A99,99,0,0,1,251.51,163a39.84,39.84,0,0,1,13.71,4.76,29.17,29.17,0,0,1,10.27,10.26q4.11,6.75,4.73,17.79L292.39,386ZM232.28,209.9a9.76,9.76,0,0,0-.46-3.52c-.3-.72-1.17-1.07-2.6-1.07q-3.39,0-5.22,4.59l-33.73,84.65H236Z" transform="translate(0 0)"/><path class="cls-2" d="M489,223.13,460.15,386.29a8.55,8.55,0,0,1-2.61,4.29,6.39,6.39,0,0,1-4.44,1.84H418.75q-5.22,0-5.22-4.9v-1.23l1.54-7.36a131.29,131.29,0,0,1-21.78,11.65q-11,4.6-27,4.61-23,0-35.42-13.5T318.49,344a105.83,105.83,0,0,1,1.84-18.71l17.76-102.13a8.65,8.65,0,0,1,2.91-4.44,7.22,7.22,0,0,1,4.76-2h37.11a4.49,4.49,0,0,1,3.68,1.54,5.77,5.77,0,0,1,1.22,3.68v1.22L370,325.26a82.49,82.49,0,0,0-1.49,14.11q0,8,4.14,11.35t14.86,3.37a32.74,32.74,0,0,0,6-.77,74.07,74.07,0,0,0,8.12-2.14c2.86-.93,5.73-2,8.59-3.22a75.55,75.55,0,0,0,8-4l21.16-120.84a9,9,0,0,1,2.75-4.44,6.68,6.68,0,0,1,4.61-2h37.11a4.93,4.93,0,0,1,3.83,1.54,5.74,5.74,0,0,1,1.38,4Z" transform="translate(0 0)"/><path class="cls-2" d="M619,222.83l-4.6,24.84a8.6,8.6,0,0,1-2.6,4.29,6.41,6.41,0,0,1-4.45,1.84H582.21l-15.94,89.25a53.87,53.87,0,0,0-.93,8.59c0,2.25.62,3.78,1.84,4.59s3.48,1.23,6.75,1.23h15a7.75,7.75,0,0,1,4,.92,3.65,3.65,0,0,1,1.53,3.38v.92l-4.3,23.92q-.92,5.22-6.74,6.13-7.08,1.23-12.58,1.84a110.88,110.88,0,0,1-12.22.62q-21,0-32.16-8.29t-11.13-28.52a62.41,62.41,0,0,1,.46-7.36c.31-2.65.66-5.41,1.07-8.28L532.4,253.8l-23.81-4q-5.22-.92-5.22-5.51v-.93l3.38-20.24a8.65,8.65,0,0,1,2.91-4.44,7.2,7.2,0,0,1,4.75-2H538.8l4.27-25.15a7,7,0,0,1,2.59-4,12,12,0,0,1,4.72-2.15l38.56-6.44h.92q4.6,0,4.6,4.29v.92l-5.83,32.51h25.15c3.48,0,5.21,1.74,5.21,5.22Z" transform="translate(0 0)"/><path class="cls-2" d="M775.12,276.19a87.45,87.45,0,0,1-.63,9.71c-.42,3.58-.82,6.29-1.22,8.13l-4,21.47q-7.38,39.25-28.73,59.49t-62.22,20.25q-15.69,0-27.66-4.76a59.21,59.21,0,0,1-20.28-13,52.87,52.87,0,0,1-12.45-19.78,73.37,73.37,0,0,1-4.14-25q0-4.29.3-8.59a62.21,62.21,0,0,1,1.23-8.58l4-21.47q7.68-41.71,30.11-60.73t60.84-19q31.34,0,48.09,16.87T775.12,276.19Zm-50,3.68q0-23.31-22.38-23.31-13.5,0-21.93,8.59T668.7,294l-4,21.47q-.63,4.29-1.08,7.82a53.06,53.06,0,0,0-.45,6.9q0,12,5.52,17.48t17.17,5.52q15,0,22.7-9.51t11-28.21l4-21.47a83.24,83.24,0,0,0,1.56-14.08Z" transform="translate(0 0)"/><path class="cls-2" d="M926.62,228.45l-4.3,25c-.61,3.9-2.66,5.84-6.13,5.84h-.92c-2.25-.2-5.36-.56-9.35-1.07s-8.39-1-13.19-1.38-9.66-.77-14.57-1.08-9.3-.45-13.19-.45h-1.22a41.73,41.73,0,0,0-11.5,1.53q-5.37,1.53-5.37,9.17,0,4.9,7.36,9.49l34,21.73q14.4,9.18,19.32,19.13t4.93,18.84q0,16.55-6.29,28a53.51,53.51,0,0,1-16.71,18.7,68.39,68.39,0,0,1-24.23,10.26,131.51,131.51,0,0,1-28.52,3.06,255.35,255.35,0,0,1-28.06-1.69,152.24,152.24,0,0,1-26.53-5.06q-4.6-1.23-4.6-5.52v-1.54l4.6-24.84q.92-5.82,7.05-5.82h.92q6.14.92,13,1.68t13.8,1.38q6.9.62,13.19.92c4.18.21,8,.31,11.5.31,2.65,0,5.21-.1,7.66-.31a17.42,17.42,0,0,0,6.44-1.69,10.76,10.76,0,0,0,4.45-4.14,14.77,14.77,0,0,0,1.69-7.66,10.45,10.45,0,0,0-2-6q-2-2.92-7.2-6.29l-35.88-23a41,41,0,0,1-15.19-16.56,45.28,45.28,0,0,1-4.75-19.94q0-15.94,6-26.68a45.92,45.92,0,0,1,16.1-17,69.26,69.26,0,0,1,23-8.9,135,135,0,0,1,26.68-2.6,190.71,190.71,0,0,1,29.14,2,222.85,222.85,0,0,1,24.23,5.1c3.06,1,4.6,2.88,4.6,5.56Z" transform="translate(0 0)"/><path class="cls-2" d="M1094.07,278.34a76.06,76.06,0,0,1-.46,8.12c-.31,2.76-.67,5.58-1.08,8.44l-3,17.79Q1088,320,1081.83,320H983.35c-.41,2.26-.72,4.45-.92,6.6s-.31,4.14-.31,6q0,12,6.29,16.71t21,4.76q7.37,0,15.79-.31t16.57-.77q8.12-.45,15.33-.91l11.81-.77q3.66-.3,5.06.61c.92.61,1.17,2,.77,4.29l-4.3,23.31a12.74,12.74,0,0,1-2,5.52c-.92,1.23-2.82,2.15-5.68,2.77a252.59,252.59,0,0,1-64.4,7.36,78.58,78.58,0,0,1-24.07-3.68,60.83,60.83,0,0,1-20.55-11.2,53.43,53.43,0,0,1-14.42-19.17Q934,349.51,934,333.56a76.3,76.3,0,0,1,.46-8.28c.3-2.86.66-5.83,1.07-8.89l3.7-21.49q7-40.17,30.36-60.42t61.34-20.24q15.64,0,27.45,4.91a54.86,54.86,0,0,1,19.78,13.64,57.44,57.44,0,0,1,12,20.4A77.6,77.6,0,0,1,1094.07,278.34Zm-46.31-2.44q0-10.72-5.52-16.25t-18.41-5.52q-15.63,0-23.76,9.66t-11.5,25.61h57.66c.4-2.46.76-4.8,1.07-7.06A49.55,49.55,0,0,0,1047.76,275.9Z" transform="translate(0 0)"/><path class="cls-2" d="M1048.11,499l-3.62,20.56a4.35,4.35,0,0,1-1.46,2.29,3.73,3.73,0,0,1-2.45,1h-19.09a2.45,2.45,0,0,1-2.77-2.08,2.06,2.06,0,0,1,0-.7v-.49l3.59-20.56a4,4,0,0,1,1.47-2.2,3.91,3.91,0,0,1,2.45-.9h19.09c1.85,0,2.77.87,2.77,2.61Z" transform="translate(0 0)"/><path class="cls-2" d="M1150.11,461a39,39,0,0,1-.25,4.32c-.16,1.47-.35,3-.57,4.49l-2.12,12.73a67.37,67.37,0,0,1-6,19.34,41.21,41.21,0,0,1-10,12.89,37.72,37.72,0,0,1-13.79,7.26,61.32,61.32,0,0,1-17.14,2.29q-3.42,0-7.1-.33t-7.42-.81l-5.06,28.23a4.63,4.63,0,0,1-1.39,2.28,3.41,3.41,0,0,1-2.37,1h-19.81a3.11,3.11,0,0,1-2.13-.73,2.6,2.6,0,0,1-.81-2v-.49L1074.39,437a4.83,4.83,0,0,1,1.39-2.94,11,11,0,0,1,4.48-1.8,156.52,156.52,0,0,1,16.65-3,143.45,143.45,0,0,1,18.76-1.23q16.47,0,25.46,9.06T1150.11,461Zm-26.6.32c0-3.8-.85-6.66-2.53-8.56s-4.76-2.86-9.22-2.86q-4.08,0-7.59.24c-2.34.17-4.32.36-6,.58l-9,50.91a86.47,86.47,0,0,0,12.24,1,25,25,0,0,0,6.93-.89,13.52,13.52,0,0,0,5.39-3.11,18.3,18.3,0,0,0,4.08-6.12,42.35,42.35,0,0,0,2.69-10l2.12-12.73c.22-1.63.41-3.16.57-4.57a32.5,32.5,0,0,0,.3-3.94Z" transform="translate(0 0)"/><path class="cls-2" d="M1241.34,462.1a39,39,0,0,1-.25,4.32c-.16,1.47-.36,3-.57,4.49l-1.63,9.47q-.84,3.92-4.08,3.91h-52.39c-.22,1.2-.38,2.37-.49,3.51s-.16,2.21-.16,3.18q0,6.38,3.34,8.9t11.18,2.53c2.61,0,5.42-.06,8.41-.16s5.93-.25,8.81-.41,5.6-.33,8.16-.49l6.28-.41a4.53,4.53,0,0,1,2.69.32c.5.33.63,1.09.42,2.29l-2.29,12.4a6.73,6.73,0,0,1-1.06,2.94,5.12,5.12,0,0,1-3,1.47,133.72,133.72,0,0,1-34.27,3.92,41.87,41.87,0,0,1-12.81-2,32.34,32.34,0,0,1-10.94-6,28.32,28.32,0,0,1-7.67-10.2,34.93,34.93,0,0,1-2.85-14.68,40.59,40.59,0,0,1,.24-4.41c.17-1.52.35-3.1.57-4.73l2-11.43q3.75-21.37,16.16-32.15t32.64-10.77a38,38,0,0,1,14.6,2.61,29.18,29.18,0,0,1,10.53,7.26,30.71,30.71,0,0,1,6.37,10.86A41.28,41.28,0,0,1,1241.34,462.1Zm-24.65-1.31c0-3.8-1-6.69-2.93-8.64s-5.23-2.94-9.8-2.94q-8.34,0-12.64,5.14T1185.2,468h30.68c.21-1.31.41-2.56.57-3.76A28.1,28.1,0,0,0,1216.69,460.79Z" transform="translate(0 0)"/><path class="cls-2" d="M1200.49,170.39a4.28,4.28,0,0,1-.21,1.74l-54.91,205.31a12.83,12.83,0,0,1-1.53,4.11,3.9,3.9,0,0,1-3.36,1.89l-14.66.73a3.57,3.57,0,0,1-3.08-1.14,4.34,4.34,0,0,1-1.15-2.68,4,4,0,0,1,.21-1.74L1177,173.29a15.37,15.37,0,0,1,1.38-4.1,3.5,3.5,0,0,1,3.22-1.89l14.66-.73a3.57,3.57,0,0,1,3.08,1.14A4.4,4.4,0,0,1,1200.49,170.39Z" transform="translate(0 0)"/><path class="cls-2" d="M1125.57,399.9a19.22,19.22,0,0,1-14.72-6.62,20.32,20.32,0,0,1-4-19.26l54.94-204.33a30.24,30.24,0,0,1,2.7-7.79,19.24,19.24,0,0,1,16.36-10.32l14.64-.68a19.34,19.34,0,0,1,15.73,6.55,20.34,20.34,0,0,1,4.1,19.26l-54.67,204.38a28.79,28.79,0,0,1-3.31,8.48,19.54,19.54,0,0,1-16.1,9.56l-14.63.73Z" transform="translate(0 0)"/><path class="cls-2" d="M1283.49,172a4.11,4.11,0,0,1-.2,1.74L1228.37,379a12.83,12.83,0,0,1-1.53,4.11,3.9,3.9,0,0,1-3.36,1.89l-14.66.73a3.57,3.57,0,0,1-3.08-1.14,4.25,4.25,0,0,1-1.14-2.68,3.81,3.81,0,0,1,.2-1.74L1260,174.9a15.37,15.37,0,0,1,1.38-4.1,3.52,3.52,0,0,1,3.22-1.89l14.66-.73a3.6,3.6,0,0,1,3.09,1.14A4.44,4.44,0,0,1,1283.49,172Z" transform="translate(0 0)"/><path class="cls-2" d="M1208.54,401.45a19.2,19.2,0,0,1-14.7-6.6,20.28,20.28,0,0,1-4.06-19.28l54.94-204.33a30.73,30.73,0,0,1,2.73-7.72,19.24,19.24,0,0,1,16.36-10.32l14.66-.73a19.4,19.4,0,0,1,15.74,6.57,20.07,20.07,0,0,1,4.94,12.15h0a20.31,20.31,0,0,1-.85,7.1l-54.67,204.37a28.63,28.63,0,0,1-3.31,8.5,19.55,19.55,0,0,1-16.06,9.54l-14.67.73Z" transform="translate(0 0)"/><rect class="cls-3" x="86.89" y="454.68" width="757" height="13.3"/></svg>