<svg id="Capa_1" data-name="Capa 1" xmlns="http://www.w3.org/2000/svg" viewBox="0 0 141 51"><defs><style>.cls-1{fill:#fff;}</style></defs><path class="cls-1" d="M137.3,31.78a.17.17,0,0,0,0-.07c-.1-.37-1.9-.51-2.8-.56a16.82,16.82,0,0,0,.38-1.8c.51-1.21.39-4.92.36-6.79a10.25,10.25,0,0,0-.6-3.39l-.07,0V17.67s.12-.7-.53-.7l-48.46.48a.35.35,0,0,0-.38.14c-.21.07-.47.15-.73.21,0-.35,0-.64,0-.86,0-3.12-.81-10.34-1.6-11.6S79,4.12,69.76,4.27a145.39,145.39,0,0,0-14.65.93A25.32,25.32,0,0,0,51.73,6l-.17,0a.19.19,0,0,1,.1,0l-.1,0s-11,6.68-15.06,11.18a2.08,2.08,0,0,1-.41.16H36a20.57,20.57,0,0,1-3.51,0c-.73-.09-17,2.22-19.54,2.68a21.05,21.05,0,0,0-4.46,1.09,1.23,1.23,0,0,0-.86,1.18,11.92,11.92,0,0,0-1.1,2,3.79,3.79,0,0,0-.23.76c-.18,1.22-.45,4.79-.11,5.11a3.81,3.81,0,0,0,1.43.22c-.06,0-.64.24-1.23.51-.56.05-2.22.25-2.38,1.15a3.78,3.78,0,0,0-.06.61A1.42,1.42,0,0,0,3.6,34c.22.94.68,2.7.68,2.7s0,.57,1.45.76a14.09,14.09,0,0,1,1.89.33v.87s-1.12.21-1.09.69,1.21.84,5.82.84A14.62,14.62,0,0,1,12.29,37,28.15,28.15,0,0,1,13,33.55c.21-1,.48-2.1.77-3.17h.35c1.05-2.8,2.41-3.9,3.78-4.51s11.57-2,14.16-.11c2.11,1.52,3.1,7.43,3.43,9.93h0s-.46,3.21.85,3.73,9.09.62,9.09.62l41.51-.62a7.79,7.79,0,0,0,3.32.62,8.14,8.14,0,0,0,3.14-.79h2.1l-.58-1.47a.86.86,0,0,0,.32-.72c0-.41.83-9,4.73-10.65s13.87-1.6,13.87-1.6a4.7,4.7,0,0,1,4.52,3.53c1.1,3.66,1.48,7.29.89,8.45l1-.13a4.38,4.38,0,0,0-.29.64l.6.38s3.48-.23,4-.19a3,3,0,0,1,2.67.9,7.48,7.48,0,0,0,2-.73c.14-.27-1.45-1.19-2.17-1.46a6.83,6.83,0,0,0-1.53-.18l1-.13a25.67,25.67,0,0,0,3-.32,24.39,24.39,0,0,0,6,.75c.58-.07.87-.92.91-1,.83-.45,1-2.5,1.06-3A.48.48,0,0,0,137.3,31.78ZM36.37,17.33l-.13,0,.13,0Zm5.47-1.82.36-.28-.12,1.26A1.33,1.33,0,0,0,41,18a1.64,1.64,0,0,0,0,.23,1,1,0,0,1-.21-.43A2.35,2.35,0,0,1,41.84,15.51Zm24.73,2.16a4.69,4.69,0,0,1-2,.3L43.46,19c.36-.13,2.57-.86,3.23-1.11s.54-1,.57-1.39.32-3.07-.69-3.22a7.69,7.69,0,0,0-2.07.17l5.33-4.23a14.83,14.83,0,0,1,7.24-2.86c4.1-.35,9.33-.41,9.33-.41s1.22-.07,1.26.92S67,16.57,67,16.57A1,1,0,0,1,66.57,17.67ZM81.06,15a2.69,2.69,0,0,1-2.54,2.71h-5.4a3.17,3.17,0,0,1-2.89-2.89V8c0-1.4,1.48-2.19,2.89-2.19h4.7c1.41,0,2.33.51,2.8,2.38L81,14,81.06,15h0Z"/><path class="cls-1" d="M23.87,26.91a9.95,9.95,0,1,0,10,9.94A9.95,9.95,0,0,0,23.87,26.91Zm0,17.46a7.52,7.52,0,1,1,7.51-7.52A7.52,7.52,0,0,1,23.9,44.37Z"/><path class="cls-1" d="M23.87,30.42a6.44,6.44,0,1,0,6.44,6.43A6.44,6.44,0,0,0,23.87,30.42Zm-2.39,7-1.79,1.54s-.25.21-.42,0a3.74,3.74,0,0,1-.43-2c0-1,.28-2.58.85-2.21l1.67,1.47s.4.25.4.6A.9.9,0,0,1,21.48,37.4Zm4.42,4.14a3.84,3.84,0,0,1-2,.43c-1,0-2.58-.28-2.21-.86l1.47-1.67s.26-.4.61-.4a.93.93,0,0,1,.6.28l1.53,1.79S26.12,41.37,25.9,41.54Zm0-8.94-1.53,1.79a.93.93,0,0,1-.6.28c-.35,0-.61-.4-.61-.4L21.7,32.6c-.38-.58,1.16-.86,2.2-.86a3.84,3.84,0,0,1,2,.43C26.12,32.34,25.9,32.6,25.9,32.6Zm2.31,6.34L26.42,37.4a.9.9,0,0,1-.28-.6c0-.34.4-.6.4-.6l1.67-1.47c.57-.37.85,1.16.85,2.21a3.74,3.74,0,0,1-.43,2C28.46,39.15,28.21,38.94,28.21,38.94Z"/><path class="cls-1" d="M107.22,26.91a9.95,9.95,0,1,0,10,9.94A9.94,9.94,0,0,0,107.22,26.91Zm0,17.46a7.52,7.52,0,1,1,7.51-7.52A7.52,7.52,0,0,1,107.25,44.37Z"/><path class="cls-1" d="M107.22,30.42a6.44,6.44,0,1,0,6.44,6.43A6.44,6.44,0,0,0,107.22,30.42Zm-2.38,7-1.79,1.54s-.26.21-.43,0a3.74,3.74,0,0,1-.43-2c0-1,.28-2.58.86-2.21l1.66,1.47s.41.25.41.6A.9.9,0,0,1,104.84,37.4Zm4.41,4.14a3.84,3.84,0,0,1-2,.43c-1,0-2.58-.28-2.2-.86l1.47-1.67s.25-.4.6-.4a.93.93,0,0,1,.6.28l1.53,1.79S109.47,41.37,109.25,41.54Zm0-8.94-1.53,1.79a.93.93,0,0,1-.6.28c-.35,0-.6-.4-.6-.4l-1.47-1.67c-.38-.58,1.16-.86,2.2-.86a3.84,3.84,0,0,1,2,.43C109.47,32.34,109.25,32.6,109.25,32.6Zm2.31,6.34-1.79-1.54a.9.9,0,0,1-.28-.6c0-.34.4-.6.4-.6l1.67-1.47c.57-.37.85,1.16.85,2.21a3.87,3.87,0,0,1-.42,2C111.81,39.15,111.56,38.94,111.56,38.94Z"/></svg>