<svg id="Capa_1" data-name="Capa 1" xmlns="http://www.w3.org/2000/svg" viewBox="0 0 141 51"><defs><style>.cls-1{fill:#fff;}</style></defs><path class="cls-1" d="M126.89,34.13c0-.57-.8-.9-1.33-1.06a1.38,1.38,0,0,0,0-.37V25.56s-.16-3.92-.81-8.37a47,47,0,0,0-1.54-7.14,12.43,12.43,0,0,0-2.17-4.35s-.27-2.31-5.92-1.81L98.26,3.57,59.33,4s-10-.34-13.16,1.61C42.59,7.28,32.66,16.73,32.36,16.91s-3.15,1.2-3.27,1.27L17.94,23s-.41.09-.5.85a14.23,14.23,0,0,0-1.13,3.71c0,.85,0,2.95.08,3.94-.85.22-2.38.71-2.38,1.45v5.25a2.5,2.5,0,0,0,2.37,1.87c2,.08,4.27,0,4.27,0s-1.23-6.33,1.55-7.51h0a9.8,9.8,0,0,1,9-3.43c5.7.88,7.53,4,8.39,6.89s.81,4.1,2,4.21,52.21,0,52.21,0,.7-1,.54-1.6,0-11.3,10.12-10.61,9.33,10.77,9.33,10.77l9.78-.8,0-.05C127.82,37.78,126.91,34.93,126.89,34.13Zm-68-16.24c-.32.09-11.7.28-15.64.34a.91.91,0,0,0,.11-.16,1.36,1.36,0,0,0,.67-1.17v-4a1.36,1.36,0,0,0-1.36-1.37h-.05a1.39,1.39,0,0,0-.5.1,42.53,42.53,0,0,1,4.44-4,8.91,8.91,0,0,1,4.76-1.55,34.88,34.88,0,0,0,4.51-.24h2.55a.78.78,0,0,1,.87.57c.17.67,0,10.76,0,10.76S59.31,17.79,58.92,17.89Z"/><path class="cls-1" d="M30,30.8a8.32,8.32,0,1,0,8.32,8.32A8.31,8.31,0,0,0,30,30.8Zm0,14.6a6.29,6.29,0,1,1,6.29-6.28A6.28,6.28,0,0,1,30,45.4Z"/><path class="cls-1" d="M30,33.73a5.39,5.39,0,1,0,5.39,5.39A5.38,5.38,0,0,0,30,33.73Zm-2,5.84-1.5,1.29s-.21.18-.36,0a3.31,3.31,0,0,1-.35-1.68c0-.87.23-2.15.71-1.84l1.4,1.23s.33.21.33.5A.75.75,0,0,1,28,39.57ZM31.66,43a3.13,3.13,0,0,1-1.67.36c-.88,0-2.16-.24-1.85-.72l1.23-1.39s.21-.34.5-.34a.78.78,0,0,1,.51.24l1.28,1.49S31.84,42.89,31.66,43Zm0-7.47-1.28,1.49a.78.78,0,0,1-.51.24c-.29,0-.5-.34-.5-.34l-1.23-1.39c-.31-.48,1-.72,1.85-.72a3.13,3.13,0,0,1,1.67.36C31.84,35.34,31.66,35.56,31.66,35.56Zm1.93,5.3-1.5-1.29a.75.75,0,0,1-.23-.5c0-.29.33-.5.33-.5l1.4-1.23c.48-.31.71,1,.71,1.84A3.31,3.31,0,0,1,34,40.86C33.8,41,33.59,40.86,33.59,40.86Z"/><path class="cls-1" d="M104.25,30.8a8.32,8.32,0,1,0,8.32,8.32A8.31,8.31,0,0,0,104.25,30.8Zm0,14.6a6.29,6.29,0,1,1,6.29-6.28A6.28,6.28,0,0,1,104.27,45.4Z"/><path class="cls-1" d="M104.25,33.73a5.39,5.39,0,1,0,5.39,5.39A5.38,5.38,0,0,0,104.25,33.73Zm-2,5.84-1.5,1.29s-.21.18-.36,0a3.31,3.31,0,0,1-.35-1.68c0-.87.23-2.15.71-1.84l1.4,1.23s.33.21.33.5A.75.75,0,0,1,102.26,39.57ZM106,43a3.13,3.13,0,0,1-1.67.36c-.87,0-2.16-.24-1.85-.72l1.23-1.39s.21-.34.5-.34a.75.75,0,0,1,.51.24L106,42.67S106.13,42.89,106,43Zm0-7.47-1.28,1.49a.74.74,0,0,1-.5.24c-.3,0-.51-.34-.51-.34l-1.23-1.39c-.31-.48,1-.72,1.85-.72a3.13,3.13,0,0,1,1.67.36C106.13,35.34,106,35.56,106,35.56Zm1.93,5.3-1.5-1.29a.75.75,0,0,1-.23-.5c0-.29.33-.5.33-.5l1.4-1.23c.48-.31.71,1,.71,1.84a3.31,3.31,0,0,1-.35,1.68C108.09,41,107.88,40.86,107.88,40.86Z"/></svg>