<svg id="Capa_1" data-name="Capa 1" xmlns="http://www.w3.org/2000/svg" viewBox="0 0 141 51"><defs><style>.cls-1{fill:#fff;}</style></defs><path class="cls-1" d="M40.62,33.4a8.32,8.32,0,1,0,8.32,8.32A8.32,8.32,0,0,0,40.62,33.4Zm0,14.6a6.28,6.28,0,1,1,6.28-6.28A6.28,6.28,0,0,1,40.64,48Z"/><path class="cls-1" d="M40.62,36.34A5.38,5.38,0,1,0,46,41.72,5.38,5.38,0,0,0,40.62,36.34Zm-2,5.84-1.49,1.28s-.22.18-.36,0a3.13,3.13,0,0,1-.36-1.67c0-.87.24-2.16.72-1.85l1.39,1.23s.34.21.34.5A.75.75,0,0,1,38.62,42.18Zm3.7,3.45a3.18,3.18,0,0,1-1.68.36c-.87,0-2.15-.23-1.84-.71L40,43.88s.21-.33.5-.33a.75.75,0,0,1,.5.23l1.29,1.5S42.5,45.49,42.32,45.63Zm0-7.47L41,39.66a.75.75,0,0,1-.5.23c-.29,0-.5-.33-.5-.33l-1.23-1.4c-.31-.48,1-.72,1.84-.72a3.28,3.28,0,0,1,1.68.36C42.5,38,42.32,38.16,42.32,38.16Zm1.92,5.3-1.49-1.28a.75.75,0,0,1-.24-.51c0-.29.34-.5.34-.5l1.39-1.23c.48-.31.72,1,.72,1.85a3.13,3.13,0,0,1-.36,1.67C44.46,43.64,44.24,43.46,44.24,43.46Z"/><path class="cls-1" d="M89.25,33.4a8.32,8.32,0,1,0,8.32,8.32A8.31,8.31,0,0,0,89.25,33.4Zm0,14.6a6.28,6.28,0,1,1,6.29-6.28A6.28,6.28,0,0,1,89.27,48Z"/><path class="cls-1" d="M89.25,36.34a5.38,5.38,0,1,0,5.39,5.38A5.38,5.38,0,0,0,89.25,36.34Zm-2,5.84-1.5,1.28s-.21.18-.36,0a3.26,3.26,0,0,1-.35-1.67c0-.87.23-2.16.71-1.85l1.4,1.23s.33.21.33.5A.76.76,0,0,1,87.26,42.18ZM91,45.63a3.13,3.13,0,0,1-1.67.36c-.87,0-2.16-.23-1.85-.71l1.23-1.4s.21-.33.5-.33a.76.76,0,0,1,.51.23L91,45.28S91.13,45.49,91,45.63Zm0-7.47-1.28,1.5a.75.75,0,0,1-.5.23.72.72,0,0,1-.51-.33l-1.23-1.4c-.31-.48,1-.72,1.85-.72A3.23,3.23,0,0,1,91,37.8C91.13,38,91,38.16,91,38.16Zm1.93,5.3-1.5-1.28a.76.76,0,0,1-.23-.51c0-.29.33-.5.33-.5l1.4-1.23c.48-.31.71,1,.71,1.85a3.26,3.26,0,0,1-.35,1.67C93.09,43.64,92.88,43.46,92.88,43.46Z"/><path class="cls-1" d="M58.74,8.89a1.34,1.34,0,0,0-1.36-1.34l-2.05,0s-10-.34-13.16,1.61C39,11.48,33,17.39,29.45,21.4c-2.22,2.49-3.17,3-3.17,5.26,0,4.05,0,1.58,0,3.55,0,.85,0,2.95.08,3.93-.85.22-2.38.72-2.38,1.46v5.25a2.48,2.48,0,0,0,2.37,1.86c1.46.06,3.16,0,4,0a.45.45,0,0,0,.44-.46A12.07,12.07,0,0,1,32,36.92c2.2-4.43,7.07-5.15,8.61-5.15a9.51,9.51,0,0,1,9.61,6.89c.86,2.9.82,4.1,2,4.21.46,0-3.3.05,5,.05a1.54,1.54,0,0,0,1.54-1.53ZM54.92,21.5c-.32.08-11.7.27-15.64.33a.91.91,0,0,0,.11-.16,1.36,1.36,0,0,0,.67-1.16v-4a1.37,1.37,0,0,0-1.36-1.37h-.05a1.39,1.39,0,0,0-.5.1,42.53,42.53,0,0,1,4.44-4,10.82,10.82,0,0,1,4.76-1.55c2.4-.15,4.51-.24,4.51-.24h2.55a.78.78,0,0,1,.87.57c.17.67,0,10.76,0,10.76S55.31,21.39,54.92,21.5Z"/><path class="cls-1" d="M116.89,36.73c0-.57-.8-.9-1.33-1.06a1.27,1.27,0,0,0,0-.37V28.16s-.16-3.91-.81-8.37c-.35-2.4-1-19-6.63-18.51L90.26,1,64,1.26a3.49,3.49,0,0,0-3.45,3.49V42.91c9,0,14.71,0,17,0a1.32,1.32,0,0,0,1.3-1.13c.41-2.87,2.2-10.25,9.69-10.25,8,0,10.29,6,10.94,8.66a1.56,1.56,0,0,0,1.63,1.18l12.39-.71a.12.12,0,0,1,0,0C117.82,40.38,116.91,37.53,116.89,36.73Z"/></svg>