<svg id="Capa_1" data-name="Capa 1" xmlns="http://www.w3.org/2000/svg" viewBox="0 0 141 51"><defs><style>.cls-1{fill:#fff;}</style></defs><path class="cls-1" d="M122.48,27.27c.18-1-1.2-1.43-1.2-1.43a4.14,4.14,0,0,0,0-1.52,26.74,26.74,0,0,0-1-4.61c-.43-.8-.75-.89-.75-.89h0c-1.77-2.59-8.85-8.24-9.4-8.58l-.59-.35c.2-.61-3.25-.83-3.25-.83-1.23-.14-16.78-1.45-25.87-1.52A57,57,0,0,0,64.69,9.59S59.54,11,48.76,18.28c0-.17-.41-.23-.76-.31s-1.34.94-1.34.94l-.32.07c-.27,0-4.65,0-15.16,2.57-10.86,2.61-12,5.43-12.18,6l-.38,1.54c-.15.8-.06,3.42-.1,3.71a1.18,1.18,0,0,0,0,.51,1.67,1.67,0,0,0,0,.31c0,1.12.71,1.87.75,2.24s-.28.47-.48.74h0a.56.56,0,0,0-.1.15c-.17.38.34.57.34.57,1.75,1.2,10.49,2.24,10.49,2.24-1.06-2.85-1.09-12.41,8.32-12.48S47.4,39.87,47.4,39.87l46.2-.28c-.56-1.71-1.7-12,8.82-12s9.73,11.47,9.73,11.47h.12a32.5,32.5,0,0,0,4.4-.85,26.91,26.91,0,0,0,4.38-2.13c.94-.54.7-3.62.7-4a17,17,0,0,1-.38-2.37C121.45,29.12,122.3,28.23,122.48,27.27ZM76.89,10.48,75.57,19.3a.33.33,0,0,1-.32.29l-17.9.65a.32.32,0,0,1-.14,0c.29,0,.55-.05.72-.08.63-.12.55-1.38.53-1.72s0-1.46-1.15-1.24l0-.35a.32.32,0,0,1,.13-.23c3.43-2.69,4.93-3.24,9-5.06,3.53-1.58,8.62-1.5,10-1.44A.34.34,0,0,1,76.89,10.48Zm16,8-13.52.68a.4.4,0,0,1-.42-.38l-.28-8.29a.39.39,0,0,1,.4-.4,136.82,136.82,0,0,1,13.71.77.39.39,0,0,1,.35.38l.14,6.83A.4.4,0,0,1,92.89,18.46Zm9.44-.68a51.06,51.06,0,0,1-6.61.49c-.33,0-.51-1-.53-1.12v0l-.42-5.59a.28.28,0,0,1,.2-.29c.28-.1-.28-.09,2.62.52a8.34,8.34,0,0,1,5.57,3.44C103.75,16.19,102.57,17.56,102.33,17.78Z"/><path class="cls-1" d="M38.28,28.67a7.4,7.4,0,1,0,7.4,7.39A7.39,7.39,0,0,0,38.28,28.67Zm0,13a5.59,5.59,0,1,1,5.59-5.59A5.59,5.59,0,0,1,38.3,41.65Z"/><path class="cls-1" d="M38.28,31.28a4.79,4.79,0,1,0,4.79,4.78A4.79,4.79,0,0,0,38.28,31.28ZM36.5,36.47l-1.33,1.14s-.19.16-.31,0a2.79,2.79,0,0,1-.32-1.49c0-.77.21-1.91.63-1.64l1.24,1.1s.3.19.3.44A.68.68,0,0,1,36.5,36.47Zm3.29,3.08a2.85,2.85,0,0,1-1.49.32c-.77,0-1.92-.21-1.64-.64L37.75,38s.19-.3.45-.3a.68.68,0,0,1,.45.21l1.14,1.33S40,39.42,39.79,39.55Zm0-6.65-1.14,1.33a.68.68,0,0,1-.45.21c-.26,0-.45-.3-.45-.3L36.66,32.9c-.28-.43.87-.64,1.64-.64a2.85,2.85,0,0,1,1.49.32C40,32.71,39.79,32.9,39.79,32.9Zm1.71,4.71-1.33-1.14A.68.68,0,0,1,40,36c0-.25.3-.44.3-.44l1.24-1.1c.43-.27.64.87.64,1.64a2.79,2.79,0,0,1-.32,1.49C41.69,37.77,41.5,37.61,41.5,37.61Z"/><path class="cls-1" d="M102.16,28.67a7.4,7.4,0,1,0,7.4,7.39A7.4,7.4,0,0,0,102.16,28.67Zm0,13a5.59,5.59,0,1,1,5.59-5.59A5.59,5.59,0,0,1,102.18,41.65Z"/><path class="cls-1" d="M102.16,31.28A4.79,4.79,0,1,0,107,36.06,4.79,4.79,0,0,0,102.16,31.28Zm-1.77,5.19-1.34,1.14s-.18.16-.31,0a2.79,2.79,0,0,1-.32-1.49c0-.77.21-1.91.63-1.64l1.25,1.1s.29.19.29.44A.69.69,0,0,1,100.39,36.47Zm3.28,3.08a2.82,2.82,0,0,1-1.49.32c-.77,0-1.92-.21-1.64-.64l1.1-1.24s.18-.3.44-.3a.68.68,0,0,1,.45.21l1.14,1.33S103.83,39.42,103.67,39.55Zm0-6.65-1.14,1.33a.68.68,0,0,1-.45.21c-.26,0-.44-.3-.44-.3l-1.1-1.24c-.28-.43.87-.64,1.64-.64a2.82,2.82,0,0,1,1.49.32C103.83,32.71,103.67,32.9,103.67,32.9Zm1.72,4.71-1.34-1.14a.69.69,0,0,1-.2-.45c0-.25.29-.44.29-.44l1.25-1.1c.42-.27.63.87.63,1.64a2.79,2.79,0,0,1-.32,1.49C105.57,37.77,105.39,37.61,105.39,37.61Z"/></svg>