<svg id="Capa_1" data-name="Capa 1" xmlns="http://www.w3.org/2000/svg" viewBox="0 0 141 51"><defs><style>.cls-1{fill:#fff;}</style></defs><path class="cls-1" d="M35.45,26.92a7.4,7.4,0,1,0,7.4,7.39A7.39,7.39,0,0,0,35.45,26.92Zm0,13a5.59,5.59,0,1,1,5.59-5.59A5.59,5.59,0,0,1,35.47,39.9Z"/><path class="cls-1" d="M35.45,29.53a4.79,4.79,0,1,0,4.79,4.78A4.78,4.78,0,0,0,35.45,29.53Zm-1.78,5.19-1.33,1.15s-.19.15-.32,0a2.9,2.9,0,0,1-.31-1.5c0-.77.2-1.91.63-1.63l1.24,1.09s.3.19.3.45A.67.67,0,0,1,33.67,34.72ZM37,37.8a2.85,2.85,0,0,1-1.49.32c-.78,0-1.92-.21-1.64-.64l1.09-1.24s.19-.3.45-.3a.68.68,0,0,1,.45.21L37,37.48S37.12,37.67,37,37.8Zm0-6.65-1.14,1.33a.68.68,0,0,1-.45.21c-.26,0-.45-.3-.45-.3l-1.09-1.24c-.28-.43.86-.64,1.64-.64a2.85,2.85,0,0,1,1.49.32C37.12,31,37,31.15,37,31.15Zm1.71,4.72-1.33-1.15a.67.67,0,0,1-.21-.44c0-.26.3-.45.3-.45l1.24-1.09c.43-.28.64.86.64,1.63a2.87,2.87,0,0,1-.32,1.5C38.86,36,38.67,35.87,38.67,35.87Z"/><path class="cls-1" d="M100.58,26.92A7.4,7.4,0,1,0,108,34.31,7.39,7.39,0,0,0,100.58,26.92Zm0,13a5.59,5.59,0,1,1,5.59-5.59A5.59,5.59,0,0,1,100.59,39.9Z"/><path class="cls-1" d="M100.58,29.53a4.79,4.79,0,1,0,4.78,4.78A4.78,4.78,0,0,0,100.58,29.53ZM98.8,34.72l-1.33,1.15s-.19.15-.32,0a2.87,2.87,0,0,1-.32-1.5c0-.77.21-1.91.64-1.63l1.24,1.09s.3.19.3.45A.67.67,0,0,1,98.8,34.72Zm3.29,3.08a2.87,2.87,0,0,1-1.5.32c-.77,0-1.91-.21-1.63-.64l1.09-1.24s.19-.3.45-.3a.67.67,0,0,1,.44.21l1.15,1.33S102.24,37.67,102.09,37.8Zm0-6.65-1.15,1.33a.67.67,0,0,1-.44.21c-.26,0-.45-.3-.45-.3L99,31.15c-.28-.43.86-.64,1.63-.64a2.87,2.87,0,0,1,1.5.32C102.24,31,102.09,31.15,102.09,31.15Zm1.71,4.72-1.33-1.15a.67.67,0,0,1-.21-.44c0-.26.3-.45.3-.45l1.24-1.09c.43-.28.64.86.64,1.63a2.87,2.87,0,0,1-.32,1.5C104,36,103.8,35.87,103.8,35.87Z"/><path class="cls-1" d="M120,33.57h-.26a.82.82,0,0,0-.17-.89,10.17,10.17,0,0,0,.94-4.63c.12-1.67-1.78-1.84-1.78-1.84,0-.3-.41-2-.47-2.22a8.71,8.71,0,0,0-.58-1.89,1.43,1.43,0,0,1-.16-.66c-.06-1.73-.58-2.4-1-2.66-.47-.51-5.55-1-6.7-1.11S105,15.4,100.33,13.1s-10.64-3.81-22-3.81c-10.11,0-13.68,1.62-14.33,2C60.14,12.74,50.78,17.91,48.77,19c-.76-.05-1.39-.12-1.39-.12a158.51,158.51,0,0,0-16.75,2.4h0c-.19,0-4.86.64-6.58,2.12a8.23,8.23,0,0,0-2.36,4.47A2.15,2.15,0,0,0,20.48,30c0,.65.54,3.8.56,4.23s-.63.37-.42,1.15,2.07,1.69,2.07,1.69l3,.29.61.06c-.94-5.21,1.25-12.59,10-11.86S45.3,36.08,45.3,36.88A2.42,2.42,0,0,0,45.48,38l.19,0c3.15-.28,39.3-.36,45.4-.37h.87c-.1-1.46-.71-7.08,2.52-9.67,2.09-1.67,6.79-4.3,12.25.23,2.78,2.3,2.55,8.05,2.76,8.11,1.64.41,5.84-.5,6.42-.48a1.14,1.14,0,0,0,.93-.43h2.73s.79.13.88-.84S120,33.57,120,33.57ZM45.66,36.68c0,.48,0,.89,0,1.24C45.67,37.57,45.67,37.16,45.66,36.68ZM66.85,11.87c2-.77,6.93-1,10.16-1.12l-1.67,8.41-22,1C55.65,18.55,64.28,12.82,66.85,11.87ZM97.76,18.3,79,19l.6-8.28H80c1,0,11.42.35,16.11,2.77C96.09,13.5,99.12,14.27,97.76,18.3Z"/></svg>