<svg id="Capa_1" data-name="Capa 1" xmlns="http://www.w3.org/2000/svg" viewBox="0 0 141 51"><defs><style>.cls-1{fill:#fff;}</style></defs><path class="cls-1" d="M35,30.8a8.32,8.32,0,1,0,8.32,8.32A8.31,8.31,0,0,0,35,30.8Zm0,14.6a6.29,6.29,0,1,1,6.29-6.28A6.28,6.28,0,0,1,35,45.4Z"/><path class="cls-1" d="M35,33.73a5.39,5.39,0,1,0,5.39,5.39A5.38,5.38,0,0,0,35,33.73Zm-2,5.84-1.5,1.29s-.21.18-.36,0a3.31,3.31,0,0,1-.35-1.68c0-.87.23-2.15.71-1.84l1.4,1.23s.33.21.33.5A.75.75,0,0,1,33,39.57ZM36.66,43a3.13,3.13,0,0,1-1.67.36c-.88,0-2.16-.24-1.85-.72l1.23-1.39s.21-.34.5-.34a.78.78,0,0,1,.51.24l1.28,1.49S36.84,42.89,36.66,43Zm0-7.47-1.28,1.49a.78.78,0,0,1-.51.24c-.29,0-.5-.34-.5-.34l-1.23-1.39c-.31-.48,1-.72,1.85-.72a3.13,3.13,0,0,1,1.67.36C36.84,35.34,36.66,35.56,36.66,35.56Zm1.93,5.3-1.5-1.29a.75.75,0,0,1-.23-.5c0-.29.33-.5.33-.5l1.4-1.23c.48-.31.71,1,.71,1.84A3.31,3.31,0,0,1,39,40.86C38.8,41,38.59,40.86,38.59,40.86Z"/><path class="cls-1" d="M102.25,30.8a8.32,8.32,0,1,0,8.32,8.32A8.31,8.31,0,0,0,102.25,30.8Zm0,14.6a6.29,6.29,0,1,1,6.29-6.28A6.28,6.28,0,0,1,102.27,45.4Z"/><path class="cls-1" d="M102.25,33.73a5.39,5.39,0,1,0,5.39,5.39A5.38,5.38,0,0,0,102.25,33.73Zm-2,5.84-1.5,1.29s-.21.18-.36,0a3.31,3.31,0,0,1-.35-1.68c0-.87.23-2.15.71-1.84l1.4,1.23s.33.21.33.5A.75.75,0,0,1,100.26,39.57ZM104,43a3.13,3.13,0,0,1-1.67.36c-.87,0-2.16-.24-1.85-.72l1.23-1.39s.21-.34.5-.34a.75.75,0,0,1,.51.24L104,42.67S104.13,42.89,104,43Zm0-7.47-1.28,1.49a.74.74,0,0,1-.5.24c-.3,0-.51-.34-.51-.34l-1.23-1.39c-.31-.48,1-.72,1.85-.72a3.13,3.13,0,0,1,1.67.36C104.13,35.34,104,35.56,104,35.56Zm1.93,5.3-1.5-1.29a.75.75,0,0,1-.23-.5c0-.29.33-.5.33-.5l1.4-1.23c.48-.31.71,1,.71,1.84a3.31,3.31,0,0,1-.35,1.68C106.09,41,105.88,40.86,105.88,40.86Z"/><path class="cls-1" d="M121.89,34.13c0-.57-.8-.9-1.33-1.06a1.38,1.38,0,0,0,0-.37V25.56s-.16-3.92-.81-8.37a47,47,0,0,0-1.54-7.14,12.43,12.43,0,0,0-2.17-4.35s2.73-2.31-2.92-1.81L96.26,3.57,58.33,4s-10-.34-13.16,1.61C41.59,7.28,32.28,16,31.36,16.91c-.27.27-2.48.67-3.27,1.27C26.69,19.26,22.94,23,22.94,23s-.41.09-.5.85a14.23,14.23,0,0,0-1.13,3.71c0,.85,0,2.95.08,3.94-.85.22-2.38.71-2.38,1.45v5.25a2.5,2.5,0,0,0,2.37,1.87c2,.08,4.27,0,4.27,0s-1.23-6.33,1.55-7.51h0a9.8,9.8,0,0,1,9-3.43c5.7.88,7.53,4,8.39,6.89s.81,4.1,2,4.21,45.21,0,45.21,0,.7-1,.54-1.6,0-11.3,10.12-10.61,9.33,10.77,9.33,10.77l6.78-.8,0-.05C122.82,37.78,121.91,34.93,121.89,34.13Zm-64-16.24c-.32.09-11.7.28-15.64.34a.91.91,0,0,0,.11-.16,1.36,1.36,0,0,0,.67-1.17v-4a1.36,1.36,0,0,0-1.36-1.37h-.05a1.39,1.39,0,0,0-.5.1,42.53,42.53,0,0,1,4.44-4,10.82,10.82,0,0,1,4.76-1.55c2.4-.15,4.51-.24,4.51-.24h2.55a.78.78,0,0,1,.87.57c.17.67,0,10.76,0,10.76S58.31,17.79,57.92,17.89Zm25.42-1.22a1.06,1.06,0,0,1-1.06,1.07H65a1.06,1.06,0,0,1-1.06-1.07V6.87A1.06,1.06,0,0,1,65,5.81H82.28a1.06,1.06,0,0,1,1.06,1.06Zm29.45,1.07H90.86a1.22,1.22,0,0,1-1.22-1.22V7a1.22,1.22,0,0,1,1.22-1.21h19.82c.67,0,1,.37,1.22,1.21l2.1,9.5A1.22,1.22,0,0,1,112.79,17.74Z"/></svg>