<svg id="Capa_1" data-name="Capa 1" xmlns="http://www.w3.org/2000/svg" viewBox="0 0 141 51"><defs><style>.cls-1{fill:#fff;}</style></defs><path class="cls-1" d="M123,32.5c1.32-.22,1.21-3.53,1.24-4.33s-1.3-1-1.74-1.35-.77-2.53-.77-2.53h0a3.64,3.64,0,0,0,.16-2.6,4.12,4.12,0,0,0-.93-2.06c-.2-.17-.09-1-.14-1.41s-3.7-.3-4.41-.36a33.51,33.51,0,0,1-3.28-.74l-.13,0c-6.58-3.31-16.61-5.7-16.61-5.7s-1.14-.29-3.28-.67c.11-.43.54-1.11.54-1.33s-.3-.18-.67-.09a9.4,9.4,0,0,0-1.69,1.12c-2.46-.38-5.77-.78-9.82-1a67.53,67.53,0,0,0-16.9.83h0c-3.08.51-11.25,5-13.62,6.06a21.28,21.28,0,0,0-3.73,2.38.57.57,0,0,0-.11-.11c-.52-.43-1.93,0-1.93,0h0c-8.95.36-18.59,2.13-22.64,3.63s-4,3.73-4.82,5.52-.47,7.58-.47,7.58c-.52.25-.47.64-.47.64.14,1.79,10.08,2.5,10.08,2.5a14.1,14.1,0,0,1-.25-6.68A8.43,8.43,0,0,1,35.33,25c5.87,0,8.35,3.29,9,6.64a13.46,13.46,0,0,1-.29,6H92.32a12.93,12.93,0,0,1,.42-6,8.53,8.53,0,0,1,8.64-6.16A9.47,9.47,0,0,1,108.94,29c2.48,3.62,1.44,8.7,1.44,8.7a46.48,46.48,0,0,0,5.79-.75.45.45,0,0,0,.11,0c1,0,4.38-.13,5-.13s.91-1,.91-1c.63-.08,1.25-1.25,1.25-1.63s-.57-.71-.62-.93a1.92,1.92,0,0,1,.13-.69ZM78.66,18.83c-.4.21-14.43.34-19.94.39A1.72,1.72,0,0,0,59.61,18a1.47,1.47,0,0,0,0-.62,1.42,1.42,0,0,0-.07-.22c2.33-1.39,6.38-3.56,9.78-4.14a52.75,52.75,0,0,1,11.08-.4S79.17,18.58,78.66,18.83Zm15.73-1-11.59.4.77-5.34c6.68-.36,12,4.1,12,4.54S94.39,17.82,94.39,17.82Zm26.84,2.91h0l0,0h0Z"/><path class="cls-1" d="M35.31,26.92a7.4,7.4,0,1,0,7.4,7.39A7.4,7.4,0,0,0,35.31,26.92Zm0,13a5.59,5.59,0,1,1,5.59-5.59A5.59,5.59,0,0,1,35.33,39.9Z"/><path class="cls-1" d="M35.31,29.53a4.79,4.79,0,1,0,4.79,4.78A4.79,4.79,0,0,0,35.31,29.53Zm-1.77,5.19L32.2,35.87s-.18.15-.31,0a2.87,2.87,0,0,1-.32-1.5c0-.77.21-1.91.63-1.63l1.25,1.09a.65.65,0,0,1,.29.45A.68.68,0,0,1,33.54,34.72Zm3.28,3.08a2.82,2.82,0,0,1-1.49.32c-.77,0-1.92-.21-1.64-.64l1.1-1.24s.18-.3.44-.3a.68.68,0,0,1,.45.21l1.14,1.33S37,37.67,36.82,37.8Zm0-6.65-1.14,1.33a.68.68,0,0,1-.45.21c-.26,0-.44-.3-.44-.3l-1.1-1.24c-.28-.43.87-.64,1.64-.64a2.82,2.82,0,0,1,1.49.32C37,31,36.82,31.15,36.82,31.15Zm1.72,4.72L37.2,34.72a.68.68,0,0,1-.2-.44.65.65,0,0,1,.29-.45l1.25-1.09c.42-.28.63.86.63,1.63a2.87,2.87,0,0,1-.32,1.5C38.72,36,38.54,35.87,38.54,35.87Z"/><path class="cls-1" d="M101.39,26.92a7.4,7.4,0,1,0,7.4,7.39A7.39,7.39,0,0,0,101.39,26.92Zm0,13A5.59,5.59,0,1,1,107,34.31,5.59,5.59,0,0,1,101.41,39.9Z"/><path class="cls-1" d="M101.39,29.53a4.79,4.79,0,1,0,4.79,4.78A4.79,4.79,0,0,0,101.39,29.53Zm-1.78,5.19-1.33,1.15s-.19.15-.32,0a2.9,2.9,0,0,1-.31-1.5c0-.77.2-1.91.63-1.63l1.24,1.09s.3.19.3.45A.67.67,0,0,1,99.61,34.72Zm3.29,3.08a2.85,2.85,0,0,1-1.49.32c-.78,0-1.92-.21-1.64-.64l1.09-1.24s.19-.3.45-.3a.68.68,0,0,1,.45.21l1.14,1.33S103.06,37.67,102.9,37.8Zm0-6.65-1.14,1.33a.68.68,0,0,1-.45.21c-.26,0-.45-.3-.45-.3l-1.09-1.24c-.28-.43.86-.64,1.64-.64a2.85,2.85,0,0,1,1.49.32C103.06,31,102.9,31.15,102.9,31.15Zm1.71,4.72-1.33-1.15a.67.67,0,0,1-.21-.44c0-.26.3-.45.3-.45l1.24-1.09c.43-.28.64.86.64,1.63a2.87,2.87,0,0,1-.32,1.5C104.8,36,104.61,35.87,104.61,35.87Z"/></svg>