<svg id="Capa_1" data-name="Capa 1" xmlns="http://www.w3.org/2000/svg" viewBox="0 0 141 51"><defs><style>.cls-1{fill:#fff;}</style></defs><path class="cls-1" d="M114.12,38.44a4.27,4.27,0,0,1,.42-.2c.26-.1.58-.21.95-.32s1-.3,1.58-.44l.4-.11.77-.19.67-.16.51-.12c.83-.2,2.11-1.44,3-2.15a5.48,5.48,0,0,1,.54-.42l.13-.06c.31-.14.52-1.66.53-3.18a15.85,15.85,0,0,0-.08-1.6,4.89,4.89,0,0,0-.22-1.06.69.69,0,0,1,0-.13l-.06-.11A1.11,1.11,0,0,0,123,28a2.79,2.79,0,0,1-.93-1.42V22.78a.45.45,0,0,0,0-.16.35.35,0,0,0-.06-.14h0a19.26,19.26,0,0,0-.14-5.11,1.41,1.41,0,0,0-.87-.78h0a.1.1,0,0,0,0-.13l-.2-.12,0,0-.16-.08h0a2.45,2.45,0,0,0-.33-.16c-.15-.64-.81-1.9-3.39-3.78-3.88-2.81-3-4.06-3.12-4.38h0a.18.18,0,0,0,0-.1v0a.14.14,0,0,0,0-.08h0c-.29-.3-3.36-.7-7.8-1l-.8-.06A1.51,1.51,0,0,0,105,4.83a3.75,3.75,0,0,0-3.4,1.53l-2.7-.14C96.4,6.09,93.73,6,91,6l-3.46,0H84.35L81.49,6,79,6,76.8,6.1a78.48,78.48,0,0,0-8.7.68c-2.82.41-12.36,4.16-16.13,7.14a24.9,24.9,0,0,1-3.6,2.33c-.94.51-1.84.93-2.62,1.26-1.37.58-2.39.92-2.68,1-.66.29-6.08.91-13,2.16s-9.63,3.43-9.63,3.43a9.48,9.48,0,0,0-2,3.39,15.38,15.38,0,0,0-.62,2l-.18.8c0,.15-.05.3-.07.44s-.07.42-.09.63l-.06.58a8.54,8.54,0,0,0,.22,2.81,5.37,5.37,0,0,0,.56,1.35c.19.32.36.54.43.67a.57.57,0,0,1,0,.54l-.1.15a1,1,0,0,1-.16.19l0,.05-.11.09A2.5,2.5,0,0,0,18,38a1.79,1.79,0,0,0-.31.28.58.58,0,0,0-.16.35c0,.81,2.92,1.54,5.49,2l.85.15,1.49.25,1.06.15.29,0h.11a19.21,19.21,0,0,1,0-3c0-.28.05-.57.08-.86s.05-.4.08-.61c.06-.41.13-.84.23-1.27a14.42,14.42,0,0,1,.56-2c.08-.22.17-.43.26-.65s.09-.21.14-.32.21-.42.32-.63a10.06,10.06,0,0,1,.77-1.19c.15-.19.3-.38.46-.56a8.17,8.17,0,0,1,2.73-2,9.61,9.61,0,0,1,1.18-.42,11.07,11.07,0,0,1,2.83-.38H37a12.23,12.23,0,0,1,3.8.67l.4.15c.26.11.51.22.75.35a7.69,7.69,0,0,1,.69.39,9.18,9.18,0,0,1,.93.67A8.66,8.66,0,0,1,44.85,31,10.35,10.35,0,0,1,46,32.74c.06.1.11.2.16.3a12.91,12.91,0,0,1,.52,1.23c0,.11.07.21.11.31a17.67,17.67,0,0,1,.85,6.25l.9,0H49l42.72-.65,1.45,0s-.21-12.2,10.18-12.2C114.32,27.94,114.12,38.44,114.12,38.44Zm-32-20.88-16.4,1.49-9.6.74a1.92,1.92,0,0,0,.42-1.73,2.12,2.12,0,0,0-2.63-1.73c-2.12.42-2.69,3.6-2.73,3.83l-1.28.1.91-2.93s6.79-4.7,8.73-5.47A35.72,35.72,0,0,1,74.82,8.6l-2.35,9.82L77.78,18V8.53C80.14,8.38,86,8.09,93,8.18l-.51,8.28Zm10.71-1.14.5-8.23,2.07,0,2.64,7.62ZM105.94,13A11.56,11.56,0,0,1,101,15.5l-2.28.27.25,0L95.89,8.17a18.74,18.74,0,0,1,2,.06,11.15,11.15,0,0,1,6,1.74C105.86,11.37,106,12.51,105.94,13Z"/><path class="cls-1" d="M37.1,29.37a8.41,8.41,0,1,0,8.4,8.41A8.41,8.41,0,0,0,37.1,29.37Zm0,14.75a6.35,6.35,0,1,1,6.34-6.34A6.34,6.34,0,0,1,37.12,44.12Z"/><path class="cls-1" d="M37.1,32.34a5.44,5.44,0,1,0,5.43,5.44A5.43,5.43,0,0,0,37.1,32.34Zm-2,5.9-1.51,1.3s-.22.18-.36,0a3.21,3.21,0,0,1-.37-1.7c0-.88.24-2.17.73-1.86L35,37.22s.34.22.34.51A.78.78,0,0,1,35.08,38.24Zm3.73,3.49a3.19,3.19,0,0,1-1.69.36c-.88,0-2.18-.23-1.86-.72L36.5,40s.21-.34.51-.34a.74.74,0,0,1,.5.24l1.3,1.51S39,41.59,38.81,41.73Zm0-7.55-1.3,1.51a.74.74,0,0,1-.5.24c-.3,0-.51-.34-.51-.34l-1.24-1.41c-.32-.49,1-.72,1.86-.72a3.19,3.19,0,0,1,1.69.36C39,34,38.81,34.18,38.81,34.18Zm1.95,5.36-1.51-1.3a.78.78,0,0,1-.24-.51c0-.29.34-.51.34-.51L40.76,36c.48-.31.72,1,.72,1.86a3.35,3.35,0,0,1-.36,1.7C41,39.72,40.76,39.54,40.76,39.54Z"/><path class="cls-1" d="M103.87,29.37a8.41,8.41,0,1,0,8.4,8.41A8.4,8.4,0,0,0,103.87,29.37Zm0,14.75a6.35,6.35,0,1,1,6.35-6.34A6.34,6.34,0,0,1,103.89,44.12Z"/><path class="cls-1" d="M103.87,32.34a5.44,5.44,0,1,0,5.44,5.44A5.43,5.43,0,0,0,103.87,32.34Zm-2,5.9-1.51,1.3s-.22.18-.36,0a3.24,3.24,0,0,1-.36-1.7c0-.88.23-2.17.72-1.86l1.41,1.24s.34.22.34.51A.78.78,0,0,1,101.85,38.24Zm3.73,3.49a3.19,3.19,0,0,1-1.69.36c-.88,0-2.18-.23-1.86-.72L103.27,40s.21-.34.51-.34a.78.78,0,0,1,.51.24l1.29,1.51S105.76,41.59,105.58,41.73Zm0-7.55-1.29,1.51a.78.78,0,0,1-.51.24c-.3,0-.51-.34-.51-.34L102,34.18c-.32-.49,1-.72,1.86-.72a3.19,3.19,0,0,1,1.69.36C105.76,34,105.58,34.18,105.58,34.18Zm2,5.36L106,38.24a.78.78,0,0,1-.24-.51c0-.29.34-.51.34-.51L107.53,36c.48-.31.72,1,.72,1.86a3.24,3.24,0,0,1-.36,1.7C107.74,39.72,107.53,39.54,107.53,39.54Z"/></svg>